<svg width="33" height="34" viewBox="0 0 33 34" fill="none" xmlns="http://www.w3.org/2000/svg">
<g clip-path="url(#clip0_4820_4438)">
<path d="M32.9262 1.91496C33.0012 1.72756 33.0196 1.52225 32.979 1.32451C32.9384 1.12676 32.8407 0.945273 32.698 0.802535C32.5553 0.659796 32.3738 0.562089 32.176 0.521524C31.9783 0.48096 31.773 0.499324 31.5856 0.574338L1.58238 12.576C1.31815 12.6818 1.08823 12.8584 0.91791 13.0864C0.747591 13.3144 0.643482 13.585 0.617042 13.8684C0.590602 14.1518 0.642855 14.437 0.768051 14.6926C0.893247 14.9482 1.08653 15.1643 1.32663 15.3171L11.6288 21.8717L14.7865 26.8341C14.9356 27.0593 15.1672 27.2169 15.4313 27.2732C15.6954 27.3295 15.9711 27.28 16.1991 27.1352C16.4271 26.9904 16.5892 26.7619 16.6506 26.4989C16.7119 26.2359 16.6676 25.9593 16.5273 25.7286L13.6893 21.2695L29.1456 5.81309L25.2372 15.5852C25.1835 15.7115 25.1555 15.8472 25.155 15.9845C25.1544 16.1217 25.1812 16.2577 25.2339 16.3844C25.2865 16.5111 25.3639 16.6261 25.4616 16.7225C25.5592 16.8189 25.6751 16.8949 25.8025 16.9459C25.9299 16.997 26.0662 17.0221 26.2034 17.0198C26.3406 17.0176 26.476 16.9879 26.6016 16.9326C26.7272 16.8774 26.8405 16.7976 26.9349 16.698C27.0292 16.5983 27.1028 16.4809 27.1512 16.3525L32.9262 1.91496ZM27.6874 4.3549L12.2311 19.8113L3.28188 14.1167L27.6874 4.3549Z" fill="white"/>
<path d="M33 26.2812C33 28.1958 32.2395 30.0319 30.8857 31.3857C29.5319 32.7395 27.6958 33.5 25.7812 33.5C23.8667 33.5 22.0306 32.7395 20.6768 31.3857C19.323 30.0319 18.5625 28.1958 18.5625 26.2812C18.5625 24.3667 19.323 22.5306 20.6768 21.1768C22.0306 19.823 23.8667 19.0625 25.7812 19.0625C27.6958 19.0625 29.5319 19.823 30.8857 21.1768C32.2395 22.5306 33 24.3667 33 26.2812ZM28.8894 22.8183C28.7732 22.7487 28.6445 22.7026 28.5105 22.6828C28.3765 22.6629 28.2399 22.6696 28.1085 22.7026C27.9771 22.7355 27.8535 22.794 27.7447 22.8748C27.636 22.9555 27.5442 23.0568 27.4746 23.1731L25.0614 27.1949L23.9333 26.0667C23.7396 25.8731 23.477 25.7643 23.2031 25.7643C22.9293 25.7643 22.6666 25.8731 22.473 26.0667C22.2794 26.2604 22.1706 26.523 22.1706 26.7969C22.1706 27.0707 22.2794 27.3334 22.473 27.527L24.0694 29.1213C24.2355 29.2878 24.4375 29.4142 24.6598 29.4909C24.8822 29.5676 25.1191 29.5926 25.3526 29.5639C25.586 29.5353 25.8099 29.4538 26.0071 29.3256C26.2043 29.1975 26.3698 29.026 26.4907 28.8243L29.2442 24.2332C29.3138 24.117 29.3599 23.9882 29.3797 23.8542C29.3996 23.7202 29.3929 23.5836 29.3599 23.4523C29.327 23.3209 29.2685 23.1973 29.1877 23.0885C29.107 22.9797 29.0057 22.8879 28.8894 22.8183Z" fill="white"/>
</g>
<defs>
<clipPath id="clip0_4820_4438">
<rect width="33" height="33" fill="white" transform="translate(0 0.5)"/>
</clipPath>
</defs>
</svg>
